<?xml version="1.0" encoding="UTF-8"?>
<svg xmlns="http://www.w3.org/2000/svg" viewBox="0 0 128 128" fill="none" role="img" aria-label="BLoK">
  <defs>
    <linearGradient id="bg" x1="0" y1="0" x2="1" y2="1">
      <stop offset="0%" stop-color="#1a1a1c"/>
      <stop offset="100%" stop-color="#0a0a0b"/>
    </linearGradient>
    <linearGradient id="stone" x1="0" y1="0" x2="0" y2="1">
      <stop offset="0%" stop-color="#3a3a3e"/>
      <stop offset="100%" stop-color="#0c0c0e"/>
    </linearGradient>
    <linearGradient id="gold" x1="0" y1="1" x2="1" y2="0">
      <stop offset="0%" stop-color="#9a3412"/>
      <stop offset="50%" stop-color="#f59e0b"/>
      <stop offset="100%" stop-color="#fde68a"/>
    </linearGradient>
  </defs>
  <rect x="6" y="6" width="116" height="116" rx="26" fill="url(#bg)"/>
  <rect x="6" y="6" width="116" height="116" rx="26" stroke="url(#gold)" stroke-width="3.5"/>
  <!-- Compact BLoK -->
  <g transform="translate(10,34) scale(0.30)">
    <path fill="url(#stone)" stroke="url(#gold)" stroke-width="10" stroke-linejoin="round"
      d="M24 22h36c14 0 26 8 26 22 0 8-4 14-11 18 10 4 16 12 16 24 0 16-13 26-30 26H24V22zm18 16v20h16c6 0 11-3 11-10s-5-10-11-10H42zm0 36v24h20c8 0 14-4 14-12s-6-12-14-12H42z"/>
    <path fill="url(#stone)" stroke="url(#gold)" stroke-width="10" stroke-linejoin="round"
      d="M118 22h20v66h32v20h-52V22z"/>
    <path fill="url(#stone)" stroke="url(#gold)" stroke-width="10" stroke-linejoin="round"
      d="M204 48c22 0 38 14 38 34s-16 34-38 34-38-14-38-34 16-34 38-34zm0 18c-11 0-18 8-18 16s7 16 18 16 18-8 18-16-7-16-18-16z"/>
    <path fill="url(#stone)" stroke="url(#gold)" stroke-width="10" stroke-linejoin="round"
      d="M258 22h20v34l28-34h24l-34 40 36 46h-24l-30-38-10 10v28h-20V22z"/>
  </g>
</svg>
